<svg id="Layer_1" data-name="Layer 1" xmlns="http://www.w3.org/2000/svg" viewBox="0 0 100 100"><defs><style>.cls-1{fill:#fff;}.cls-2{fill:#58595b;}</style></defs><rect class="cls-1" width="100" height="100"/><path class="cls-2" d="M41.68,87.71S44,86.86,47,80.76c0,0,.06.32,1.54-1C48.5,79.72,47.25,86,41.68,87.71Z"/><path class="cls-2" d="M57.1,88A18,18,0,0,1,52,80.73l-1.45-.82A10.64,10.64,0,0,0,57.1,88Z"/><polygon class="cls-2" points="45.29 79.38 46.14 76.96 46.8 75.98 52.46 76.14 53.54 79.38 45.29 79.38"/><path class="cls-2" d="M46.14,77c-1.54-.5-5.07-1.85-7.16-4.88-.59-1.11-1.2-4,2.07-4.43a6.8,6.8,0,0,1,5.16,2.42,13.44,13.44,0,0,1,3.35,5.49H48.9A26.86,26.86,0,0,0,45,71.12a4.52,4.52,0,0,0-2.31-1.29c-1.4-.23-2.77,1.06-1.51,2.28A28,28,0,0,0,46.8,76Z"/><polygon class="cls-2" points="45.56 78.35 43.54 76.47 39.57 74.99 40.27 76.31 38.83 76.79 42.68 78.29 45.56 78.35"/><polygon class="cls-2" points="53.62 78.64 55.76 76.87 59.84 75.21 59.15 76.47 60.45 77.03 56.69 78.54 53.62 78.64"/><path class="cls-2" d="M50.09,75.61s1.73-4.46,5.15-6.82c1.22-.72,5.39-2.23,6,1.14.14,1.06-.13,2.89-3,4.88a21.6,21.6,0,0,1-5.42,2.56s-.27-.84-.35-1,2.13-.77,4-2.07c1.31-.92,3.59-2.16,2.41-3.72-.63-.83-2.29-.6-3.72.37a17.28,17.28,0,0,0-4.34,4.72Z"/><polygon class="cls-2" points="37.64 74.99 35.61 73.11 31.65 71.62 32.34 72.94 30.91 73.43 34.75 74.93 37.64 74.99"/><polygon class="cls-2" points="30.17 72.4 28.6 70.13 25.05 67.82 25.45 69.26 23.93 69.42 27.36 71.72 30.17 72.4"/><polygon class="cls-2" points="23.45 67.89 22.49 65.3 19.63 62.18 19.65 63.67 18.15 63.45 20.9 66.53 23.45 67.89"/><polygon class="cls-2" points="17.82 62.16 17.43 59.42 15.29 55.77 15 57.23 13.57 56.7 15.61 60.29 17.82 62.16"/><polygon class="cls-2" points="13.74 54.81 13.69 52.84 12.48 50.07 12.15 51.09 11.19 50.59 12.34 53.3 13.74 54.81"/><polygon class="cls-2" points="11.02 48.73 11.48 47.07 11.18 44.46 10.64 45.22 9.97 44.56 10.23 47.11 11.02 48.73"/><polygon class="cls-2" points="10.38 42.86 10.98 41.31 10.94 38.76 10.35 39.44 9.76 38.74 9.78 41.23 10.38 42.86"/><polygon class="cls-2" points="9.92 36.69 10.87 35.32 11.41 32.83 10.69 33.36 10.27 32.54 9.71 34.96 9.92 36.69"/><path class="cls-2" d="M26.85,78.18S30.14,74,38.1,76C37.86,76.67,32.69,80.84,26.85,78.18Z"/><path class="cls-2" d="M30.5,60.94s3.53,3.82-.12,10.8C29.74,71.4,26.65,65.84,30.5,60.94Z"/><path class="cls-2" d="M17.6,72.65s4.14-3.39,11.46.33C28.67,73.6,22.71,76.52,17.6,72.65Z"/><path class="cls-2" d="M14,66.88s3.78-2.28,9.32,1.63C22.92,69,17.7,70.65,14,66.88Z"/><path class="cls-2" d="M9.12,59.73s3.93-1.5,8.45,3.11C17.13,63.2,12,63.89,9.12,59.73Z"/><path class="cls-2" d="M7.18,53.63s3.09-1.41,7,2A6.38,6.38,0,0,1,7.18,53.63Z"/><path class="cls-2" d="M5.56,47.58s2.89-1.07,6.19,2.32A5.77,5.77,0,0,1,5.56,47.58Z"/><path class="cls-2" d="M5,41.65s2.63-.81,5.4,2.38A5.15,5.15,0,0,1,5,41.65Z"/><path class="cls-2" d="M5.5,34.32s2.73-.11,4.57,3.66A5.11,5.11,0,0,1,5.5,34.32Z"/><path class="cls-2" d="M13.74,24.37s1.48,3.45-2.46,7.66A7,7,0,0,1,13.74,24.37Z"/><path class="cls-2" d="M15,33.26s0,2.76-4,4.41A5.19,5.19,0,0,1,15,33.26Z"/><path class="cls-2" d="M14.17,38.22s.63,2.62-2.66,5.26A5.3,5.3,0,0,1,14.17,38.22Z"/><path class="cls-2" d="M15.55,43.67s.81,3-2.88,5.86A5.65,5.65,0,0,1,15.55,43.67Z"/><path class="cls-2" d="M16.79,48.88S18,51.94,14.4,55.46A6.08,6.08,0,0,1,16.79,48.88Z"/><path class="cls-2" d="M21.49,53.77s1.71,3.94-2.79,8.68C18.31,62,17.36,56.78,21.49,53.77Z"/><path class="cls-2" d="M25.31,58.39s2.57,3.65-1,9.34C23.77,67.36,21.71,62.26,25.31,58.39Z"/><polygon class="cls-2" points="62.36 74.99 64.39 73.11 68.35 71.62 67.66 72.94 69.09 73.43 65.25 74.93 62.36 74.99"/><polygon class="cls-2" points="69.83 72.4 71.4 70.13 74.95 67.82 74.56 69.26 76.06 69.42 72.64 71.72 69.83 72.4"/><polygon class="cls-2" points="76.55 67.89 77.51 65.3 80.37 62.18 80.35 63.67 81.85 63.45 79.1 66.53 76.55 67.89"/><polygon class="cls-2" points="82.18 62.16 82.57 59.42 84.71 55.77 85 57.23 86.43 56.7 84.39 60.29 82.18 62.16"/><polygon class="cls-2" points="86.26 54.81 86.31 52.84 87.52 50.07 87.85 51.09 88.81 50.59 87.66 53.3 86.26 54.81"/><polygon class="cls-2" points="88.98 48.73 88.52 47.07 88.82 44.46 89.36 45.22 90.03 44.56 89.77 47.11 88.98 48.73"/><polygon class="cls-2" points="89.62 42.86 89.02 41.31 89.06 38.76 89.65 39.44 90.24 38.74 90.22 41.23 89.62 42.86"/><polygon class="cls-2" points="90.08 36.69 89.13 35.32 88.59 32.83 89.31 33.36 89.73 32.54 90.29 34.96 90.08 36.69"/><path class="cls-2" d="M73.15,78.18S69.86,74,61.9,76C62.14,76.67,67.31,80.84,73.15,78.18Z"/><path class="cls-2" d="M69.62,71.74c-3.65-7-.12-10.8-.12-10.8C73.35,65.84,70.26,71.4,69.62,71.74Z"/><path class="cls-2" d="M82.4,72.65s-4.14-3.39-11.46.33C71.33,73.6,77.29,76.52,82.4,72.65Z"/><path class="cls-2" d="M86,66.88s-3.78-2.28-9.32,1.63C77.08,69,82.3,70.65,86,66.88Z"/><path class="cls-2" d="M90.88,59.73s-3.93-1.5-8.45,3.11C82.87,63.2,88,63.89,90.88,59.73Z"/><path class="cls-2" d="M92.82,53.63s-3.09-1.41-7,2A6.38,6.38,0,0,0,92.82,53.63Z"/><path class="cls-2" d="M94.44,47.58s-2.89-1.07-6.19,2.32A5.77,5.77,0,0,0,94.44,47.58Z"/><path class="cls-2" d="M95,41.65s-2.63-.81-5.4,2.38A5.15,5.15,0,0,0,95,41.65Z"/><path class="cls-2" d="M94.5,34.32s-2.73-.11-4.57,3.66A5.11,5.11,0,0,0,94.5,34.32Z"/><path class="cls-2" d="M86.26,24.37S84.78,27.82,88.72,32A7,7,0,0,0,86.26,24.37Z"/><path class="cls-2" d="M85,33.26s0,2.76,4,4.41A5.19,5.19,0,0,0,85,33.26Z"/><path class="cls-2" d="M85.83,38.22s-.63,2.62,2.66,5.26A5.3,5.3,0,0,0,85.83,38.22Z"/><path class="cls-2" d="M84.45,43.67s-.81,3,2.88,5.86A5.65,5.65,0,0,0,84.45,43.67Z"/><path class="cls-2" d="M83.21,48.88S82,51.94,85.6,55.46A6.08,6.08,0,0,0,83.21,48.88Z"/><path class="cls-2" d="M78.51,53.77s-1.71,3.94,2.79,8.68C81.69,62,82.64,56.78,78.51,53.77Z"/><path class="cls-2" d="M74.69,58.39s-2.57,3.65,1,9.34C76.23,67.36,78.29,62.26,74.69,58.39Z"/><path class="cls-2" d="M39,73.31l-.28,1.31S33,70.52,35.55,64.34l2,2.44S34.7,70.75,39,73.31Z"/><path class="cls-2" d="M60.89,73.31l.29,1.31s5.68-4.1,3.15-10.28l-1.95,2.44S65.18,70.75,60.89,73.31Z"/><path class="cls-2" d="M72.9,32.79c-1.54-3.28-6.25-3.43-9.4-3.29-.12,0-.37-.29-.46-.36l-.67-.52A14,14,0,0,0,61,27.76,18.2,18.2,0,0,0,57.5,26.4a25.32,25.32,0,0,0-3.94-.83l-.6-.05v-1A2,2,0,0,0,54,22.88c0-1-1-1.84-2.36-2.14V19.46c0-2.49,2-1.92,2-1.92V18.9h1V14.8H54c0,1.48-1.17,1.45-1.17,1.45a1.48,1.48,0,0,1-1.42-1.66A1.41,1.41,0,0,1,52.79,13v-.94H48.35V13a1.41,1.41,0,0,1,1.43,1.6,1.48,1.48,0,0,1-1.43,1.66s-1.16,0-1.16-1.45h-.77v4.1h1V17.54s2-.57,2,1.92v1.28c-1.38.3-2.37,1.15-2.37,2.14a2,2,0,0,0,1.08,1.63v1a22.72,22.72,0,0,0-3.06.51,24,24,0,0,0-4.94,1.75,8.59,8.59,0,0,0-2.53,1.72c-3.16-.14-7.86,0-9.4,3.29a11.7,11.7,0,0,0-.38,7.66A28.75,28.75,0,0,0,34,51.5a20.16,20.16,0,0,1,2.53,3.22A10.69,10.69,0,0,1,37.62,60c0,.16,0,.31,0,.47a21.34,21.34,0,0,1,4.63-.89,65.66,65.66,0,0,1,16.69,0,21.57,21.57,0,0,1,4.63.89l0-.47a10.59,10.59,0,0,1,1.1-5.31,19.55,19.55,0,0,1,2.52-3.22,28.49,28.49,0,0,0,6.13-11A11.76,11.76,0,0,0,72.9,32.79ZM38.74,51s-12.4-16.41-3.37-18.44c0,0-3,4.13,6.33,18.44Zm6.94-1.2S35.84,30.34,47.1,28.31c0,0-.11,15.35,1.76,21.45Zm9.79,0H52.28C54.15,43.66,54,28.31,54,28.31,65.31,30.34,55.47,49.76,55.47,49.76ZM62.41,51h-3c9.31-14.31,6.33-18.44,6.33-18.44C74.8,34.55,62.41,51,62.41,51Zm7.76-19a1.11,1.11,0,1,1-1.1-1.1A1.11,1.11,0,0,1,70.17,32Zm2.49,3.82a1.11,1.11,0,1,1-1.11-1.1A1.11,1.11,0,0,1,72.66,35.83Zm-.6,4.61a1.11,1.11,0,1,1-1.1-1.1A1.1,1.1,0,0,1,72.06,40.44Zm-2.45,4.87a1.11,1.11,0,1,1-1.11-1.1A1.11,1.11,0,0,1,69.61,45.31Zm-2.83,4.91a1.1,1.1,0,1,1-1.1-1.1A1.1,1.1,0,0,1,66.78,50.22ZM61,29.41a1.1,1.1,0,1,1-1.1-1.1A1.1,1.1,0,0,1,61,29.41Zm2.93,4.21a1.11,1.11,0,1,1-1.1-1.1A1.11,1.11,0,0,1,63.92,33.62Zm-.72,5a1.11,1.11,0,0,1-2.21,0,1.11,1.11,0,1,1,2.21,0Zm-1.66,5a1.11,1.11,0,1,1-1.1-1.1A1.1,1.1,0,0,1,61.54,43.59Zm-2.21,5.07a1.1,1.1,0,1,1-1.1-1.11A1.1,1.1,0,0,1,59.33,48.66ZM32,30.91a1.11,1.11,0,1,1-1.1,1.1A1.11,1.11,0,0,1,32,30.91Zm-2.48,3.82a1.1,1.1,0,1,1-1.1,1.1A1.1,1.1,0,0,1,29.48,34.73Zm.6,4.61A1.1,1.1,0,1,1,29,40.44,1.1,1.1,0,0,1,30.08,39.34Zm2.45,4.87a1.1,1.1,0,1,1-1.1,1.1A1.1,1.1,0,0,1,32.53,44.21Zm2.82,4.91a1.1,1.1,0,1,1-1.1,1.1A1.11,1.11,0,0,1,35.35,49.12Zm15.22,4.16a1.11,1.11,0,1,1-1.1,1.1A1.11,1.11,0,0,1,50.57,53.28Zm-6,.57a1.11,1.11,0,1,1-1.1,1.1A1.11,1.11,0,0,1,44.62,53.85ZM39,55a1.11,1.11,0,1,1-1.11,1.11A1.11,1.11,0,0,1,39,55Zm17.22-1.1a1.11,1.11,0,1,1-1.1,1.1A1.11,1.11,0,0,1,56.22,53.85ZM61.8,55a1.11,1.11,0,1,1-1.1,1.11A1.11,1.11,0,0,1,61.8,55ZM41.14,28.31a1.1,1.1,0,1,1-1.1,1.1A1.1,1.1,0,0,1,41.14,28.31Zm-2.92,4.21a1.11,1.11,0,1,1-1.11,1.1A1.1,1.1,0,0,1,38.22,32.52Zm.72,5a1.11,1.11,0,1,1-1.11,1.11A1.11,1.11,0,0,1,38.94,37.5Zm1.66,5a1.1,1.1,0,1,1-1.11,1.1A1.1,1.1,0,0,1,40.6,42.49Zm2.2,5.06a1.11,1.11,0,1,1,0,2.21,1.11,1.11,0,0,1,0-2.21Zm8.88-19.71a1.11,1.11,0,1,1-1.11-1.11A1.11,1.11,0,0,1,51.68,27.84Zm0,5a1.11,1.11,0,1,1-1.11-1.1A1.11,1.11,0,0,1,51.68,32.82Zm0,4.68a1.11,1.11,0,1,1-2.21,0,1.11,1.11,0,0,1,2.21,0Zm0,4.69a1.11,1.11,0,1,1-1.11-1.11A1.11,1.11,0,0,1,51.68,42.19Zm0,5.09a1.11,1.11,0,1,1-1.11-1.1A1.11,1.11,0,0,1,51.68,47.28Z"/></svg>